<?xml version="1.0" standalone="no"?>
<!DOCTYPE svg PUBLIC "-//W3C//DTD SVG 20010904//EN"
 "http://www.w3.org/TR/2001/REC-SVG-20010904/DTD/svg10.dtd">
<svg version="1.0" xmlns="http://www.w3.org/2000/svg"
 width="932.000000pt" height="932.000000pt" viewBox="0 0 932.000000 932.000000"
 preserveAspectRatio="xMidYMid meet">
<metadata>
Created by potrace 1.11, written by Peter Selinger 2001-2013
</metadata>
<g transform="translate(0.000000,932.000000) scale(0.100000,-0.100000)"
fill="#000000" stroke="none">
<path d="M4309 9265 c-2 -2 -42 -6 -89 -10 -47 -3 -97 -7 -113 -9 -15 -2 -55
-7 -90 -11 -34 -4 -71 -9 -82 -11 -11 -3 -40 -7 -65 -10 -25 -2 -53 -7 -63
-10 -11 -3 -29 -7 -40 -9 -31 -4 -84 -14 -137 -26 -25 -6 -53 -12 -63 -14 -9
-2 -45 -11 -80 -20 -69 -18 -92 -24 -124 -31 -48 -10 -364 -119 -482 -166
-162 -64 -475 -219 -616 -303 -523 -316 -951 -695 -1306 -1156 -44 -57 -87
-113 -95 -124 -28 -37 -201 -299 -226 -345 -14 -25 -43 -76 -65 -115 -37 -64
-150 -293 -201 -405 -91 -203 -239 -663 -266 -830 -1 -8 -6 -28 -9 -45 -4 -16
-9 -41 -12 -55 -3 -14 -7 -36 -10 -50 -11 -52 -15 -76 -20 -115 -3 -22 -7 -51
-10 -64 -2 -13 -7 -49 -10 -80 -4 -31 -8 -67 -10 -80 -20 -124 -28 -739 -12
-906 14 -147 23 -220 32 -276 3 -14 7 -43 10 -63 2 -21 7 -46 9 -55 3 -9 7
-32 10 -51 6 -39 12 -71 23 -115 3 -16 7 -37 9 -45 3 -17 4 -24 32 -135 45
-176 114 -399 148 -472 8 -17 14 -35 14 -41 0 -5 9 -29 19 -53 48 -110 54
-125 56 -135 4 -16 170 -350 206 -414 55 -98 153 -255 161 -258 4 -2 8 -8 8
-13 0 -5 21 -39 47 -77 470 -677 1076 -1201 1788 -1546 244 -118 342 -158 595
-242 111 -37 283 -85 350 -99 8 -2 33 -8 55 -13 22 -6 51 -13 65 -16 42 -7
144 -26 170 -31 51 -10 131 -22 200 -30 25 -3 61 -7 80 -10 206 -27 878 -27
1019 0 11 2 44 6 73 10 29 3 64 7 78 9 14 2 43 7 65 10 22 3 51 8 65 11 14 3
40 8 59 11 18 3 43 8 55 10 11 3 30 7 41 8 11 2 27 6 35 9 8 3 31 8 50 11 19
3 78 17 130 31 52 14 102 28 110 30 8 2 15 4 15 5 0 1 10 3 23 6 12 2 62 18
110 34 48 17 98 33 112 36 14 3 29 9 35 15 5 5 15 9 23 9 7 0 32 9 55 19 24
11 55 23 70 26 15 4 30 11 33 16 3 5 11 9 19 9 16 0 120 47 290 131 582 286
1112 713 1544 1243 117 144 232 309 368 531 98 160 248 463 323 655 21 55 100
276 104 295 2 6 6 17 9 25 9 24 52 176 62 221 2 12 9 36 14 53 6 17 13 45 16
61 2 17 7 40 10 53 3 12 7 32 10 45 3 12 7 33 10 47 3 14 7 35 9 46 2 12 7 39
11 60 3 22 8 53 11 69 3 17 7 46 10 65 22 177 23 191 31 275 10 105 10 656 0
765 -9 106 -22 219 -32 285 -11 77 -21 133 -41 240 -3 16 -14 68 -25 115 -11
47 -22 93 -24 103 -2 10 -7 27 -10 37 -3 10 -8 27 -10 37 -2 10 -11 43 -20 73
-9 30 -18 62 -20 70 -2 8 -15 49 -29 90 -15 41 -28 82 -30 90 -4 16 -81 218
-99 260 -6 14 -11 27 -12 30 -37 105 -303 609 -326 618 -5 2 -9 8 -9 14 0 30
-233 353 -389 538 -117 139 -370 395 -506 512 -209 178 -508 393 -675 484 -19
10 -42 24 -50 30 -45 35 -405 209 -565 273 -11 5 -31 13 -45 19 -68 28 -278
101 -310 107 -8 2 -16 4 -17 5 -2 2 -6 3 -10 4 -5 1 -35 10 -68 20 -33 10 -64
19 -70 20 -5 2 -28 8 -50 14 -22 6 -55 14 -74 17 -19 3 -37 8 -41 10 -3 2 -19
6 -35 9 -16 3 -51 10 -79 16 -28 6 -62 12 -76 15 -14 3 -36 7 -50 10 -14 3
-42 7 -62 10 -21 3 -54 7 -73 10 -81 12 -113 16 -170 21 -33 3 -76 8 -95 11
-42 6 -696 14 -701 8z"/>
</g>
</svg>
